<svg width="54" height="48" viewBox="0 0 54 48" fill="none" xmlns="http://www.w3.org/2000/svg">
<path opacity="0.3" d="M52.2383 24.5031L43.5052 28.4419C43.3264 28.5198 43.1682 28.6497 43.0459 28.8189C42.9236 28.9881 42.8414 29.1909 42.8073 29.4075L41.5776 37.2129L45.6026 46.0689L49.55 47.6002C49.7405 47.3216 49.8674 46.9926 49.9193 46.6431L53.2427 25.4772C53.2608 25.3275 53.2457 25.175 53.1987 25.0339C53.1517 24.8929 53.0744 24.7678 52.9741 24.6705C52.8738 24.5732 52.7536 24.5068 52.6249 24.4775C52.4963 24.4482 52.3632 24.457 52.2383 24.5031Z" fill="#111115"/>
<path opacity="0.3" d="M34.5651 36.4218L33.0585 33.4443C33.0187 33.3636 32.9549 33.3023 32.8788 33.2718C32.8027 33.2413 32.7196 33.2436 32.6449 33.2784L12.7711 42.3044L9.44775 47.9744C9.8515 47.95 10.2522 47.8802 10.6442 47.766L34.4358 36.8769C34.4728 36.8602 34.5061 36.8343 34.5334 36.801C34.5606 36.7677 34.5812 36.7279 34.5935 36.6844C34.6059 36.6409 34.6097 36.5948 34.6048 36.5494C34.5999 36.504 34.5863 36.4604 34.5651 36.4218Z" fill="#111115"/>
<path d="M20.7288 7.90136L24.5138 0.449077C24.5835 0.312343 24.6831 0.198975 24.8026 0.120206C24.9221 0.0414371 25.0574 0 25.1951 0C25.3328 0 25.4681 0.0414371 25.5876 0.120206C25.7071 0.198975 25.8066 0.312343 25.8764 0.449077L49.5093 46.9961C49.5606 47.0977 49.5878 47.2131 49.588 47.3306C49.5882 47.4482 49.5615 47.5637 49.5106 47.6656C49.4596 47.7674 49.3862 47.852 49.2978 47.9107C49.2094 47.9694 49.1091 48.0002 49.0071 47.9999H40.9793C40.7597 47.9987 40.5441 47.9323 40.3533 47.8071C40.1625 47.6819 40.0029 47.5022 39.8899 47.2853L20.7325 9.9048C20.5779 9.60119 20.496 9.25569 20.4954 8.90366C20.4947 8.55163 20.5753 8.20573 20.7288 7.90136Z" fill="#111115"/>
<path d="M9.5217 47.9702L1.44959 48C1.32661 47.9996 1.20588 47.9619 1.0995 47.8908C0.993121 47.8197 0.90484 47.7177 0.843499 47.5949C0.782159 47.4721 0.749912 47.3329 0.75 47.1912C0.750089 47.0496 0.782501 46.9104 0.843995 46.7877L18.3434 12.5165C18.4114 12.3824 18.5087 12.2711 18.6257 12.1937C18.7426 12.1164 18.8751 12.0757 19.0099 12.0757C19.1448 12.0757 19.2773 12.1164 19.3942 12.1937C19.5112 12.2711 19.6085 12.3824 19.6765 12.5165L23.406 19.7774C23.5793 20.1133 23.6707 20.4969 23.6707 20.8876C23.6707 21.2783 23.5793 21.6619 23.406 21.9978C19.0684 30.4709 14.7209 38.9455 10.3636 47.4215C10.2766 47.5892 10.1532 47.7279 10.0056 47.8241C9.85804 47.9203 9.69128 47.9706 9.5217 47.9702Z" fill="#111115"/>
</svg>
