<svg width="158" height="42" viewBox="0 0 158 42" fill="none" xmlns="http://www.w3.org/2000/svg">
<g clip-path="url(#clip0_34_611)">
<path d="M24.4694 10.645H13.8898C13.1295 10.6827 12.6243 11.3264 12.6243 12.1351V14.0684C12.6243 14.8747 13.1815 15.5066 13.8898 15.5066H24.4694C25.1777 15.5066 25.7349 14.8747 25.7349 14.0684V12.1233C25.7349 11.383 25.1942 10.6875 24.4694 10.645Z" fill="white"/>
<path d="M145.82 6.36582H143.582C143.241 6.3595 142.912 6.48822 142.667 6.72377C142.421 6.95932 142.279 7.28249 142.271 7.62248V25.4184C142.279 25.7584 142.421 26.0815 142.667 26.3171C142.912 26.5526 143.241 26.6814 143.582 26.675H145.82C146.16 26.6813 146.489 26.5526 146.734 26.3169C146.98 26.0813 147.121 25.7582 147.128 25.4184V7.62719C147.125 7.45855 147.089 7.29211 147.022 7.1374C146.955 6.98269 146.858 6.84275 146.736 6.72558C146.615 6.60842 146.471 6.51633 146.314 6.4546C146.157 6.39287 145.989 6.3627 145.82 6.36582Z" fill="white"/>
<path d="M156.147 0.0283108H133.283C132.921 0.0251684 132.571 0.165914 132.312 0.419647C132.053 0.67338 131.906 1.01936 131.902 1.38163V3.63323C131.906 3.9955 132.053 4.34148 132.312 4.59521C132.571 4.84895 132.921 4.98969 133.283 4.98655H156.117C156.486 4.97793 156.838 4.82509 157.097 4.56073C157.355 4.29636 157.5 3.94146 157.5 3.57193V1.43586C157.505 1.07092 157.365 0.718847 157.112 0.455542C156.859 0.192238 156.513 0.0387991 156.147 0.0283108Z" fill="white"/>
<path d="M31.7036 14.7568C31.7074 17.9178 32.9665 20.9483 35.2048 23.1834C37.4431 25.4186 40.4778 26.676 43.6432 26.6797H45.5084C48.6738 26.676 51.7085 25.4186 53.9468 23.1834C56.1851 20.9483 57.4442 17.9178 57.448 14.7568V12.0078C57.4442 8.84677 56.1851 5.81632 53.9468 3.58116C51.7085 1.346 48.6738 0.0886437 45.5084 0.0848999H43.6432C40.4778 0.0886437 37.4431 1.346 35.2048 3.58116C32.9665 5.81632 31.7074 8.84677 31.7036 12.0078V14.7568ZM36.402 12.543C36.4039 10.5305 37.2051 8.60092 38.6299 7.17766C40.0548 5.7544 41.9868 4.95368 44.0021 4.95118H45.1495C47.1648 4.95305 49.0971 5.75318 50.5223 7.17599C51.9476 8.59881 52.7494 10.5281 52.7519 12.5406V14.2311C52.7494 16.2435 51.9476 18.1729 50.5223 19.5957C49.0971 21.0185 47.1648 21.8186 45.1495 21.8205H44.0021C41.9872 21.818 40.0555 21.0176 38.6308 19.5948C37.206 18.1721 36.4045 16.2431 36.402 14.2311V12.543Z" fill="white"/>
<path d="M123.693 2.33885C122.947 1.59987 122.063 1.01532 121.091 0.618799C120.118 0.222274 119.077 0.0215955 118.027 0.0282998H101.861C101.501 0.0282993 101.156 0.170806 100.902 0.424535C100.647 0.678264 100.504 1.02248 100.503 1.38162V3.57428C100.503 3.93383 100.646 4.27865 100.901 4.53289C101.155 4.78713 101.501 4.92996 101.861 4.92996H118.093C118.491 4.92604 118.886 5.00278 119.254 5.15554C119.622 5.30831 119.956 5.53394 120.234 5.81881C120.751 6.3588 121.035 7.08049 121.023 7.82758C121.002 8.59014 120.682 9.31396 120.131 9.84314C119.581 10.3723 118.845 10.6645 118.081 10.6568H106.009C105.768 10.6604 105.531 10.7268 105.323 10.8496C105.116 10.9724 104.944 11.1473 104.824 11.3569C104.705 11.5666 104.643 11.8037 104.643 12.0448C104.644 12.2859 104.708 12.5227 104.829 12.7316L112.738 26.1257C112.845 26.3087 112.999 26.4604 113.183 26.5659C113.367 26.6713 113.576 26.7269 113.789 26.7269H118.511C118.829 26.7411 119.124 26.3497 118.95 26.0668L113.312 16.4756C113.259 16.3826 113.231 16.2774 113.232 16.1705C113.233 16.0637 113.261 15.9588 113.315 15.8663C113.369 15.7739 113.446 15.697 113.538 15.6434C113.631 15.5898 113.736 15.5614 113.843 15.5608H118.093C120.144 15.5626 122.114 14.7615 123.581 13.3295C125.047 11.8975 125.894 9.94855 125.938 7.90066C125.955 6.8708 125.765 5.84797 125.38 4.89267C124.994 3.93737 124.42 3.06898 123.693 2.33885Z" fill="white"/>
<path d="M25.4987 17.0603V17.0461C25.4987 17.0461 25.4822 17.0202 25.4728 17.0061C25.43 16.9417 25.3809 16.8817 25.3264 16.8269C25.2015 16.7004 25.032 16.6277 24.8542 16.6241H21.5866C21.5002 16.6268 21.4141 16.6363 21.3292 16.6524C21.0496 16.7318 20.8019 16.8967 20.6209 17.124C20.5436 17.2162 20.4793 17.3185 20.4297 17.4281C19.8173 18.7397 18.8425 19.8493 17.6198 20.6262C16.3972 21.4032 14.9777 21.8151 13.5285 21.8134H12.3929C10.3755 21.8128 8.44098 21.0122 7.0145 19.5878C5.58802 18.1633 4.78636 16.2314 4.78573 14.2169V12.55C4.78542 11.5522 4.98196 10.5642 5.36411 9.64225C5.74627 8.72033 6.30656 7.88262 7.01297 7.17697C7.71939 6.47132 8.5581 5.91156 9.48119 5.52965C10.4043 5.14775 11.3937 4.95118 12.3929 4.95118H13.5285C14.5358 4.94805 15.5336 5.14675 16.4627 5.53552C17.3918 5.92429 18.2333 6.49524 18.9375 7.21457C19.0354 7.31254 19.1517 7.39026 19.2797 7.44326C19.4078 7.49626 19.545 7.5235 19.6836 7.52342H23.8602H23.931C24.0361 7.51849 24.1389 7.49085 24.2322 7.44242C24.3256 7.39398 24.4073 7.32589 24.4717 7.24286C24.5724 7.08904 24.6227 6.90779 24.6157 6.72416C24.6054 6.61473 24.5741 6.50828 24.5236 6.41059C23.5109 4.47097 21.9834 2.84695 20.1082 1.71627C18.2331 0.585593 16.0826 -0.0081522 13.8921 2.22456e-05H12.0269C10.4475 2.22456e-05 8.88358 0.310672 7.42441 0.914236C5.96523 1.5178 4.6394 2.40246 3.5226 3.5177C1.26712 5.77003 0 8.82484 0 12.0101L0 14.7545C0 17.9397 1.26712 20.9946 3.5226 23.2469C5.77808 25.4992 8.83717 26.7646 12.0269 26.7646H13.8921C14.2415 26.7646 14.5886 26.7504 14.9309 26.7221L15.3819 26.675H15.4409L15.7596 26.6278C15.821 26.6278 15.8848 26.6113 15.9462 26.5995L16.1539 26.5594L16.442 26.5052C16.5128 26.4911 16.5789 26.4722 16.6474 26.4557L16.933 26.3897L17.1526 26.3284C17.24 26.3025 17.3297 26.2812 17.417 26.2529L17.6531 26.1751L17.8892 26.0997L18.2056 25.9818L18.3544 25.9252C18.4346 25.8946 18.5149 25.8592 18.5905 25.8238L18.8077 25.7342L18.9706 25.6564L19.2539 25.5244C19.3058 25.4985 19.3578 25.4678 19.4121 25.4419C19.5042 25.3947 19.5986 25.3476 19.6907 25.2957L19.9055 25.1731L20.118 25.0505C20.2007 25.001 20.2809 24.9468 20.3541 24.8949L20.5241 24.7888L20.7413 24.6379L20.9278 24.5082L21.1238 24.3621C21.1899 24.3126 21.256 24.2654 21.3198 24.2135C21.3835 24.1617 21.4449 24.1098 21.5087 24.0579L21.6999 23.9023L21.8959 23.7279L22.0658 23.577L22.2358 23.4119L22.4176 23.2351C22.4672 23.1856 22.5121 23.1337 22.5593 23.0842C22.6065 23.0347 22.6915 22.9498 22.7576 22.8791L22.9111 22.6999C22.9677 22.6362 23.0268 22.5726 23.0811 22.5089L23.2322 22.3203L23.3904 22.1246L23.5344 21.9266C23.584 21.8606 23.6359 21.7945 23.6831 21.7262C23.7303 21.6578 23.7776 21.5871 23.8248 21.5163L23.9617 21.3136L24.0963 21.0967L24.2238 20.8915L24.3418 20.6794C24.382 20.6039 24.4268 20.5308 24.467 20.4436C24.5071 20.3563 24.5402 20.2998 24.5756 20.229C24.611 20.1583 24.6559 20.0734 24.6936 19.9933C24.7314 19.9131 24.7668 19.8353 24.8022 19.7575C24.8377 19.6797 24.8707 19.6113 24.9038 19.5382L25.0029 19.3025C25.0336 19.227 25.0643 19.1539 25.0926 19.0667C25.121 18.9795 25.1517 18.904 25.18 18.8309C25.2083 18.7578 25.239 18.673 25.265 18.5952C25.291 18.5173 25.3169 18.4301 25.3429 18.3594C25.3689 18.2887 25.3948 18.1991 25.4185 18.1236C25.4421 18.0482 25.461 17.9539 25.4846 17.869C25.5082 17.7841 25.5294 17.7063 25.5507 17.6332C25.5659 17.5707 25.573 17.5065 25.5719 17.4422C25.5831 17.3106 25.5578 17.1785 25.4987 17.0603Z" fill="white"/>
<path opacity="0.3" d="M95.9842 13.6534L90.4004 15.8366C90.2861 15.8798 90.185 15.9518 90.1068 16.0456C90.0286 16.1394 89.976 16.2518 89.9542 16.3718L89.168 20.6982L91.7415 25.607L94.2654 26.4557C94.3871 26.3013 94.4683 26.119 94.5015 25.9253L96.6264 14.1933C96.6379 14.1104 96.6283 14.0259 96.5982 13.9477C96.5682 13.8695 96.5188 13.8002 96.4546 13.7462C96.3905 13.6923 96.3137 13.6555 96.2314 13.6392C96.1491 13.623 96.064 13.6279 95.9842 13.6534Z" fill="white"/>
<path opacity="0.3" d="M84.6843 20.2597L83.721 18.6094C83.6956 18.5646 83.6547 18.5307 83.6061 18.5138C83.5574 18.4968 83.5043 18.4981 83.4566 18.5174L70.7497 23.5204L68.6248 26.6632C68.8829 26.6497 69.1391 26.611 69.3897 26.5477L84.6016 20.512C84.6253 20.5027 84.6466 20.4884 84.664 20.4699C84.6814 20.4515 84.6946 20.4294 84.7025 20.4053C84.7104 20.3812 84.7128 20.3557 84.7097 20.3305C84.7065 20.3053 84.6979 20.2812 84.6843 20.2597Z" fill="white"/>
<path d="M75.8378 4.45137L78.2578 0.320693C78.3024 0.244904 78.366 0.182066 78.4425 0.138406C78.5189 0.0947453 78.6054 0.0717773 78.6934 0.0717773C78.7814 0.0717773 78.8679 0.0947453 78.9443 0.138406C79.0207 0.182066 79.0844 0.244904 79.129 0.320693L94.2394 26.1209C94.2722 26.1772 94.2896 26.2412 94.2897 26.3064C94.2899 26.3715 94.2728 26.4356 94.2402 26.492C94.2076 26.5485 94.1607 26.5953 94.1042 26.6279C94.0477 26.6604 93.9835 26.6775 93.9183 26.6774H88.7855C88.6451 26.6767 88.5072 26.6399 88.3852 26.5705C88.2632 26.5011 88.1612 26.4015 88.089 26.2813L75.8401 5.56185C75.7412 5.39356 75.6889 5.20205 75.6885 5.00693C75.6881 4.81181 75.7396 4.62008 75.8378 4.45137Z" fill="white"/>
<path d="M68.6722 26.6608L63.511 26.6773C63.4324 26.6771 63.3552 26.6562 63.2872 26.6168C63.2192 26.5774 63.1627 26.5209 63.1235 26.4528C63.0843 26.3847 63.0637 26.3076 63.0637 26.229C63.0638 26.1505 63.0845 26.0734 63.1238 26.0054L74.3126 7.00943C74.3561 6.93507 74.4183 6.87338 74.4931 6.83051C74.5678 6.78764 74.6525 6.76508 74.7388 6.76508C74.825 6.76508 74.9097 6.78764 74.9845 6.83051C75.0592 6.87338 75.1215 6.93507 75.1649 7.00943L77.5495 11.034C77.6603 11.2202 77.7188 11.4328 77.7188 11.6494C77.7188 11.866 77.6603 12.0785 77.5495 12.2647C74.7761 16.9613 71.9965 21.6586 69.2105 26.3567C69.1548 26.4496 69.076 26.5265 68.9816 26.5798C68.8872 26.6331 68.7806 26.6611 68.6722 26.6608Z" fill="white"/>
<path d="M63.0648 32.5928H64.4814L64.5735 33.9343C65.133 32.8545 66.2521 32.4254 67.2981 32.4254C68.5659 32.4254 69.8716 32.9653 70.3933 34.4365C70.6752 33.8192 71.1335 33.2989 71.7108 32.941C72.288 32.5832 72.9583 32.4038 73.6374 32.4254C76.0621 32.4254 77.5188 34.0098 77.5188 36.5231V41.776H75.9889V36.5231C75.9889 35.0141 75.113 33.8589 73.6019 33.8589C72.0909 33.8589 71.0827 35.0519 71.0827 36.5608V41.776H69.5552V36.5608C69.5552 35.0519 68.6108 33.8589 67.0738 33.8589C65.5368 33.8589 64.5735 35.0519 64.5735 36.5608V41.776H63.0388V32.581L63.0648 32.5928Z" fill="white"/>
<path d="M88.4501 40.3166C87.5175 41.4153 85.9144 41.967 84.4789 41.967C81.6244 41.967 79.6294 40.0808 79.6294 37.162C79.6294 34.387 81.6244 32.3947 84.4033 32.3947C87.22 32.3947 89.3614 34.1253 89.0097 37.7939H81.1759C81.3435 39.489 82.7436 40.5524 84.5143 40.5524C85.5602 40.5524 86.8281 40.1421 87.4419 39.3971L88.469 40.3284L88.4501 40.3166ZM87.5553 36.516C87.4797 34.7289 86.2496 33.7599 84.4411 33.7599C82.8356 33.7599 81.4379 34.7289 81.1759 36.4971H87.5506L87.5553 36.516Z" fill="white"/>
<path d="M93.6538 32.5928H96.5083V33.8966H93.6349V38.7581C93.6349 39.838 93.9915 40.5288 95.0917 40.5288C95.5404 40.5135 95.98 40.3983 96.3784 40.1916L96.8247 41.4601C96.265 41.7294 95.6558 41.8811 95.035 41.9057C93.0589 41.9434 92.1263 40.7881 92.1263 38.7581V33.8966H90.2776V32.5928H92.1263V30.0606L93.6538 29.8932V32.5928Z" fill="white"/>
<path d="M106.04 41.8137L106.002 40.1374C105.275 41.4035 103.877 42 102.607 42C99.9577 42 97.8848 40.1728 97.8848 37.1761C97.8848 34.1795 99.9908 32.4065 102.621 32.4254C104.002 32.4254 105.362 33.0596 106.035 34.2502L106.051 32.5739H107.544V41.7689H106.07L106.04 41.8137ZM102.682 33.8777C100.855 33.8777 99.3769 35.1815 99.3769 37.2304C99.3769 39.2792 100.853 40.6019 102.682 40.6019C107.121 40.6019 107.121 33.8589 102.701 33.8589L102.682 33.8777Z" fill="white"/>
<path d="M111.13 32.5739L112.62 36.1694L114.187 40.1563L115.734 36.1883L117.226 32.5739H118.905L115.028 41.7949H113.349L109.451 32.5739H111.13Z" fill="white"/>
<path d="M128.644 40.3166C127.7 41.4153 126.108 41.967 124.673 41.967C121.818 41.967 119.823 40.0808 119.823 37.162C119.823 34.387 121.818 32.3947 124.597 32.3947C127.414 32.3947 129.555 34.1253 129.203 37.7939H121.37C121.537 39.489 122.937 40.5524 124.708 40.5524C125.754 40.5524 127.022 40.1421 127.638 39.3971L128.675 40.3166H128.644ZM127.749 36.516C127.674 34.7289 126.443 33.7599 124.635 33.7599C123.029 33.7599 121.632 34.7289 121.37 36.4971H127.744L127.749 36.516Z" fill="white"/>
<path d="M132.766 32.5574L132.88 33.9343C133.512 32.7437 134.65 32.4065 135.713 32.4065C136.485 32.3918 137.24 32.6349 137.859 33.0973L137.174 34.4011C136.764 34.1094 136.281 33.9367 135.779 33.9024C135.276 33.868 134.774 33.9732 134.328 34.2064C133.882 34.4395 133.509 34.7915 133.251 35.2233C132.993 35.6551 132.859 36.1499 132.865 36.6527V41.776H131.335V32.581H132.752L132.766 32.5574Z" fill="white"/>
<path d="M145.225 34.6228C144.422 33.8966 143.572 33.7292 142.628 33.7292C141.36 33.7103 140.333 34.1583 140.352 35.0707C140.371 36.0138 141.49 36.2991 142.647 36.4311C144.326 36.6362 146.564 36.971 146.526 39.2438C146.488 41.0875 144.736 42 142.666 42C141.117 42 139.596 41.5709 138.543 40.2671L139.419 39.2061C140.241 40.2105 141.566 40.6207 142.704 40.6207C143.709 40.6207 144.996 40.3048 145.034 39.1872C145.053 38.1805 143.971 37.8834 142.555 37.716C140.782 37.4921 138.879 37.0252 138.879 35.0707C138.879 33.1162 140.838 32.3523 142.609 32.3712C143.99 32.3712 145.128 32.7059 146.115 33.5995L145.239 34.6062L145.225 34.6228Z" fill="white"/>
<path d="M156.865 40.3166C155.932 41.4153 154.327 41.967 152.891 41.967C150.037 41.967 148.042 40.0808 148.042 37.162C148.042 34.387 150.037 32.3947 152.816 32.3947C155.632 32.3947 157.774 34.1253 157.424 37.7939H149.591C149.758 39.489 151.156 40.5524 152.929 40.5524C153.973 40.5524 155.24 40.1421 155.857 39.3971L156.881 40.3284L156.865 40.3166ZM155.968 36.516C155.894 34.7289 154.662 33.7599 152.853 33.7599C151.25 33.7599 149.85 34.7289 149.591 36.4971H155.965L155.968 36.516Z" fill="white"/>
</g>
<defs>
<clipPath id="clip0_34_611">
<rect width="157.5" height="42" fill="white"/>
</clipPath>
</defs>
</svg>
