<svg width="25" height="24" viewBox="0 0 25 24" fill="none" xmlns="http://www.w3.org/2000/svg">
<g clip-path="url(#clip0_119_730)">
<circle cx="12.333" cy="12" r="12" fill="#8247E5"/>
<path d="M16.4479 9.30287C16.1555 9.13577 15.7795 9.13577 15.4453 9.30287L13.1059 10.6815L11.5184 11.5587L9.22074 12.9373C8.92831 13.1044 8.55233 13.1044 8.21813 12.9373L6.42178 11.8512C6.12935 11.6841 5.92048 11.3499 5.92048 10.9739V8.88512C5.92048 8.55091 6.08758 8.21671 6.42178 8.00783L8.21813 6.96345C8.51055 6.79634 8.88653 6.79634 9.22074 6.96345L11.0171 8.04961C11.3095 8.21671 11.5184 8.55091 11.5184 8.92689V10.3055L13.1059 9.38642V7.96606C13.1059 7.63185 12.9388 7.29765 12.6045 7.08877L9.26251 5.12533C8.97008 4.95822 8.5941 4.95822 8.2599 5.12533L4.83431 7.13055C4.50011 7.29765 4.33301 7.63185 4.33301 7.96606V11.893C4.33301 12.2272 4.50011 12.5614 4.83431 12.7702L8.21813 14.7337C8.51055 14.9008 8.88653 14.9008 9.22074 14.7337L11.5184 13.3969L13.1059 12.4778L15.4035 11.141C15.6959 10.9739 16.0719 10.9739 16.4061 11.141L18.2025 12.1854C18.4949 12.3525 18.7038 12.6867 18.7038 13.0627V15.1514C18.7038 15.4856 18.5367 15.8198 18.2025 16.0287L16.4479 17.0731C16.1555 17.2402 15.7795 17.2402 15.4453 17.0731L13.6489 16.0287C13.3565 15.8616 13.1476 15.5274 13.1476 15.1514V13.8146L11.5602 14.7337V16.1123C11.5602 16.4465 11.7273 16.7807 12.0615 16.9896L15.4453 18.953C15.7377 19.1201 16.1137 19.1201 16.4479 18.953L19.8317 16.9896C20.1241 16.8225 20.333 16.4883 20.333 16.1123V12.1436C20.333 11.8094 20.1659 11.4752 19.8317 11.2663L16.4479 9.30287Z" fill="white"/>
</g>
<defs>
<clipPath id="clip0_119_730">
<rect width="24" height="24" fill="white" transform="translate(0.333008)"/>
</clipPath>
</defs>
</svg>
