<svg width="43" height="32" viewBox="0 0 43 32" fill="none" xmlns="http://www.w3.org/2000/svg">
<path opacity="0.3" d="M42.3255 16.3354L36.5034 18.9613C36.3843 19.0132 36.2788 19.0998 36.1972 19.2126C36.1157 19.3254 36.0609 19.4606 36.0381 19.605L35.2184 24.8086L37.9017 30.7126L40.5333 31.7335C40.6603 31.5477 40.7449 31.3284 40.7795 31.0954L42.9951 16.9848C43.0072 16.885 42.9971 16.7834 42.9658 16.6893C42.9344 16.5953 42.8829 16.5119 42.816 16.447C42.7491 16.3821 42.669 16.3379 42.5833 16.3184C42.4975 16.2988 42.4088 16.3047 42.3255 16.3354Z" fill="white"/>
<path opacity="0.3" d="M30.5435 24.2812L29.5391 22.2962C29.5126 22.2424 29.47 22.2015 29.4193 22.1812C29.3686 22.1608 29.3132 22.1624 29.2634 22.1856L16.0142 28.203L13.7986 31.983C14.0677 31.9667 14.3349 31.9201 14.5962 31.844L30.4573 24.5846C30.482 24.5735 30.5042 24.5562 30.5223 24.534C30.5405 24.5118 30.5542 24.4853 30.5624 24.4563C30.5707 24.4273 30.5732 24.3966 30.57 24.3663C30.5667 24.336 30.5576 24.307 30.5435 24.2812Z" fill="white"/>
<path d="M21.3192 5.26758L23.8425 0.299385C23.889 0.208228 23.9554 0.13265 24.0351 0.0801375C24.1147 0.0276248 24.2049 0 24.2967 0C24.3885 0 24.4787 0.0276248 24.5584 0.0801375C24.638 0.13265 24.7044 0.208228 24.7509 0.299385L40.5062 31.3307C40.5404 31.3985 40.5585 31.4754 40.5587 31.5538C40.5588 31.6321 40.541 31.7091 40.5071 31.777C40.4731 31.8449 40.4242 31.9013 40.3652 31.9405C40.3063 31.9796 40.2394 32.0001 40.1714 32H34.8195C34.6731 31.9991 34.5294 31.9549 34.4022 31.8714C34.275 31.788 34.1686 31.6682 34.0933 31.5236L21.3217 6.6032C21.2186 6.40079 21.164 6.17046 21.1636 5.93577C21.1631 5.70109 21.2169 5.47049 21.3192 5.26758Z" fill="white"/>
<path d="M13.8478 31.9802L8.4664 32C8.3844 31.9997 8.30392 31.9746 8.233 31.9272C8.16208 31.8799 8.10323 31.8118 8.06233 31.73C8.02144 31.6481 7.99994 31.5553 8 31.4608C8.00006 31.3664 8.02167 31.2736 8.06266 31.1918L19.7289 8.34437C19.7743 8.25494 19.8391 8.18074 19.9171 8.12917C19.9951 8.07761 20.0834 8.05048 20.1733 8.05048C20.2632 8.05048 20.3515 8.07761 20.4295 8.12917C20.5075 8.18074 20.5723 8.25494 20.6176 8.34437L23.104 13.185C23.2195 13.4089 23.2805 13.6646 23.2805 13.9251C23.2805 14.1856 23.2195 14.4413 23.104 14.6652C20.2123 20.314 17.314 25.9637 14.4091 31.6144C14.3511 31.7261 14.2688 31.8186 14.1704 31.8827C14.072 31.9469 13.9609 31.9804 13.8478 31.9802Z" fill="white"/>
</svg>
