<svg width="25" height="24" viewBox="0 0 25 24" fill="none" xmlns="http://www.w3.org/2000/svg">
<path fill-rule="evenodd" clip-rule="evenodd" d="M12.6667 24C19.2942 24 24.6667 18.6274 24.6667 12C24.6667 5.37258 19.2942 0 12.6667 0C6.03933 0 0.666748 5.37258 0.666748 12C0.666748 18.6274 6.03933 24 12.6667 24ZM11.8359 19.5224L12.5921 20L13.3881 19.5224V6.14925L19.5175 9.69154V7.9801L12.5921 4L5.66675 7.9801V9.69154L11.8359 6.14925V19.5224ZM7.01998 16.9353L5.66675 16.2985V10.5274L11.1195 7.60043V19.1244L9.72645 18.408V9.77114L9.08963 10.1294V18.0896L7.6966 17.3731V10.806L7.01998 11.1244V16.9353ZM14.1045 7.4229L19.5174 10.5274L18.0448 11.4428L15.5771 10.01V12.5671H19.5174V14.0697H15.5771V16.5373L18.0448 15.1045L19.5174 15.9801L14.1045 19.1244V7.4229Z" fill="#181819"/>
</svg>
