<svg width="25" height="24" viewBox="0 0 25 24" fill="none" xmlns="http://www.w3.org/2000/svg">
<g clip-path="url(#clip0_46_782)">
<path fill-rule="evenodd" clip-rule="evenodd" d="M12.5 24C19.1274 24 24.5 18.6274 24.5 12C24.5 5.37258 19.1274 0 12.5 0C5.87258 0 0.5 5.37258 0.5 12C0.5 18.6274 5.87258 24 12.5 24ZM15.6123 9.30287C15.9465 9.13577 16.3225 9.13577 16.6149 9.30287L19.9987 11.2663C20.3329 11.4752 20.5 11.8094 20.5 12.1436V16.1123C20.5 16.4883 20.2911 16.8225 19.9987 16.9896L16.6149 18.953C16.2807 19.1201 15.9047 19.1201 15.6123 18.953L12.2285 16.9896C11.8943 16.7807 11.7272 16.4465 11.7272 16.1123V14.7337L13.3146 13.8146V15.1514C13.3146 15.5274 13.5235 15.8616 13.8159 16.0287L15.6123 17.0731C15.9465 17.2402 16.3225 17.2402 16.6149 17.0731L18.3695 16.0287C18.7037 15.8198 18.8708 15.4856 18.8708 15.1514V13.0627C18.8708 12.6867 18.6619 12.3525 18.3695 12.1854L16.5731 11.141C16.2389 10.9739 15.8629 10.9739 15.5705 11.141L13.2728 12.4778L11.6854 13.3969L9.38773 14.7337C9.05352 14.9008 8.67755 14.9008 8.38512 14.7337L5.00131 12.7702C4.6671 12.5614 4.5 12.2272 4.5 11.893V7.96606C4.5 7.63185 4.6671 7.29765 5.00131 7.13055L8.42689 5.12533C8.7611 4.95822 9.13708 4.95822 9.4295 5.12533L12.7715 7.08877C13.1057 7.29765 13.2728 7.63185 13.2728 7.96606V9.38642L11.6854 10.3055V8.92689C11.6854 8.55091 11.4765 8.21671 11.1841 8.04961L9.38773 6.96345C9.05352 6.79634 8.67755 6.79634 8.38512 6.96345L6.58877 8.00783C6.25457 8.21671 6.08747 8.55091 6.08747 8.88512V10.9739C6.08747 11.3499 6.29634 11.6841 6.58877 11.8512L8.38512 12.9373C8.71932 13.1044 9.0953 13.1044 9.38773 12.9373L11.6854 11.5587L13.2728 10.6815L15.6123 9.30287Z" fill="#2B1268"/>
</g>
<defs>
<clipPath id="clip0_46_782">
<rect width="24" height="24" fill="white" transform="translate(0.5)"/>
</clipPath>
</defs>
</svg>
