<svg width="24" height="24" viewBox="0 0 24 24" fill="none" xmlns="http://www.w3.org/2000/svg">
<path fill-rule="evenodd" clip-rule="evenodd" d="M12 24C18.6274 24 24 18.6274 24 12C24 5.37258 18.6274 0 12 0C5.37258 0 0 5.37258 0 12C0 18.6274 5.37258 24 12 24ZM15.1123 9.30287C15.4465 9.13577 15.8225 9.13577 16.1149 9.30287L19.4987 11.2663C19.8329 11.4752 20 11.8094 20 12.1436V16.1123C20 16.4883 19.7911 16.8225 19.4987 16.9896L16.1149 18.953C15.7807 19.1201 15.4047 19.1201 15.1123 18.953L11.7285 16.9896C11.3943 16.7807 11.2272 16.4465 11.2272 16.1123V14.7337L12.8146 13.8146V15.1514C12.8146 15.5274 13.0235 15.8616 13.3159 16.0287L15.1123 17.0731C15.4465 17.2402 15.8225 17.2402 16.1149 17.0731L17.8695 16.0287C18.2037 15.8198 18.3708 15.4856 18.3708 15.1514V13.0627C18.3708 12.6867 18.1619 12.3525 17.8695 12.1854L16.0731 11.141C15.7389 10.9739 15.3629 10.9739 15.0705 11.141L12.7728 12.4778L11.1854 13.3969L8.88773 14.7337C8.55352 14.9008 8.17755 14.9008 7.88512 14.7337L4.50131 12.7702C4.1671 12.5614 4 12.2272 4 11.893V7.96606C4 7.63185 4.1671 7.29765 4.50131 7.13055L7.92689 5.12533C8.2611 4.95822 8.63708 4.95822 8.9295 5.12533L12.2715 7.08877C12.6057 7.29765 12.7728 7.63185 12.7728 7.96606V9.38642L11.1854 10.3055V8.92689C11.1854 8.55091 10.9765 8.21671 10.6841 8.04961L8.88773 6.96345C8.55352 6.79634 8.17755 6.79634 7.88512 6.96345L6.08877 8.00783C5.75457 8.21671 5.58747 8.55091 5.58747 8.88512V10.9739C5.58747 11.3499 5.79634 11.6841 6.08877 11.8512L7.88512 12.9373C8.21932 13.1044 8.5953 13.1044 8.88773 12.9373L11.1854 11.5587L12.7728 10.6815L15.1123 9.30287Z" fill="#2B1268"/>
</svg>
