<svg width="24" height="24" viewBox="0 0 24 24" fill="none" xmlns="http://www.w3.org/2000/svg">
<g clip-path="url(#clip0_119_725)">
<path d="M7.57196 0C8.95385 0 9.75657 0 9.98011 0C9.98011 0.243862 9.98011 1.29045 9.98011 3.13974C9.98011 4.98904 9.98011 6.02546 9.98011 6.24901L17.296 3.59699C17.296 4.30826 17.296 4.9484 17.296 5.51741L9.98011 8.16943C9.98011 8.25071 9.98011 8.42346 9.98011 8.68764C9.98011 8.95182 9.98011 9.12456 9.98011 9.20584L13.9429 7.80363L17.296 6.55384C17.296 6.67577 17.296 6.98567 17.296 7.48356C17.296 7.98146 17.296 8.2812 17.296 8.38281C17.296 8.4641 17.2757 8.50474 17.2351 8.50474L10.1935 11.0348C10.1122 11.0755 10.0411 11.1161 9.98011 11.1568C9.98011 12.3964 9.98011 14.1085 9.98011 16.2931C9.98011 18.4777 9.98011 20.1899 9.98011 21.4295C9.98011 21.4295 9.98011 21.4397 9.98011 21.46C9.98011 21.4803 9.98011 21.4905 9.98011 21.4905C11.8294 21.2669 13.4653 20.5658 14.8879 19.3871C16.4527 18.1069 17.4992 16.5116 18.0276 14.6013C18.2512 13.7275 18.3629 12.8536 18.3629 11.9798C18.3629 11.9798 19.1758 11.9798 20.8016 11.9798C20.8016 13.951 20.324 15.8105 19.3689 17.5582C18.6982 18.8994 17.7837 20.0578 16.6254 21.0332C15.5483 21.9884 14.3392 22.7199 12.9979 23.228C11.2502 23.8986 9.44158 24.1323 7.57196 23.9291C7.57196 22.6082 7.57196 20.6268 7.57196 17.9849C7.57196 15.3431 7.57196 13.3515 7.57196 12.0103C7.57196 12.0103 7.43986 12.0611 7.17568 12.1627L2.99951 13.6564C2.99951 13.0467 2.99951 12.4066 2.99951 11.7359L7.57196 10.0899C7.57196 9.96793 7.57196 9.61229 7.57196 9.02295C7.34842 9.12456 7.04866 9.2465 6.67271 9.38875C6.29675 9.531 6.05797 9.61229 5.95636 9.63261L3.54821 10.5166C3.54821 10.5166 3.48216 10.5369 3.35007 10.5776C3.21798 10.6182 3.10113 10.6487 2.99951 10.669C2.99951 9.69358 2.99951 9.05344 2.99951 8.74861L7.57196 7.13301C7.57196 6.23885 7.57196 5.05001 7.57196 3.5665C7.57196 2.083 7.57196 0.89417 7.57196 0Z" fill="#181819"/>
</g>
<defs>
<clipPath id="clip0_119_725">
<rect width="24" height="24" fill="white" transform="translate(-0.000488281)"/>
</clipPath>
</defs>
</svg>
